<svg width="63" height="30" viewBox="0 0 63 30" fill="none" xmlns="http://www.w3.org/2000/svg">
<path d="M48.0545 5.13147L52.0779 7.1935L35.7128 24.6048L32.5997 23.3072L33.4798 0.197754H37.7798L36.6885 17.946L48.0545 5.13147Z" fill="#339CFF"/>
<path d="M25.0507 0.197754H29.3657L30.1 23.6994L26.9869 24.982L10.4558 7.20848L14.7659 5.43818L26.0716 18.3283L25.0507 0.197754Z" fill="#339CFF"/>
<path d="M6.08035 14.3351L7.87579 10.0303L25.5536 26.6619L24.251 29.77L0 29.7347L1.79543 25.4348L18.8948 25.7113L6.08035 14.3351Z" fill="#339CFF"/>
<path d="M43.6187 25.6457L60.7181 25.4596L62.4884 29.7747L38.2273 29.674L36.9499 26.5561L54.7182 10.0249L56.4885 14.34L43.6187 25.6457Z" fill="#339CFF"/>
</svg>
