<svg width="48" height="47" viewBox="0 0 48 47" fill="none" xmlns="http://www.w3.org/2000/svg">
<path d="M16.125 38.3604C18.8958 39.8187 21.5208 40.5479 24 40.5479C26.4792 40.5479 29.0677 39.8187 31.7656 38.3604C34.5365 36.902 36.6146 35.1156 38 33.001C37.9271 30.9593 36.2865 29.2458 33.0781 27.8604C29.8698 26.4749 26.8438 25.7822 24 25.7822C21.1562 25.7822 18.1302 26.4749 14.9219 27.8604C11.7135 29.1729 10.0729 30.8864 10 33.001C11.3854 35.1156 13.4271 36.902 16.125 38.3604ZM28.9219 9.48535C27.5365 8.09993 25.8958 7.40723 24 7.40723C22.1042 7.40723 20.4635 8.09993 19.0781 9.48535C17.6927 10.8708 17 12.5114 17 14.4072C17 16.3031 17.6927 17.9437 19.0781 19.3291C20.4635 20.7145 22.1042 21.4072 24 21.4072C25.8958 21.4072 27.5365 20.7145 28.9219 19.3291C30.3073 17.9437 31 16.3031 31 14.4072C31 12.5114 30.3073 10.8708 28.9219 9.48535ZM7.48438 7.29785C12.0781 2.7041 17.5833 0.407227 24 0.407227C30.4167 0.407227 35.8854 2.7041 40.4062 7.29785C45 11.8187 47.2969 17.2874 47.2969 23.7041C47.2969 30.1208 45 35.626 40.4062 40.2197C35.8854 44.7406 30.4167 47.001 24 47.001C17.5833 47.001 12.0781 44.7406 7.48438 40.2197C2.96354 35.626 0.703125 30.1208 0.703125 23.7041C0.703125 17.2874 2.96354 11.8187 7.48438 7.29785Z" fill="#0B3B60"/>
</svg>
