<svg width="18" height="20" viewBox="0 0 18 20" fill="none" xmlns="http://www.w3.org/2000/svg">
<path d="M7.5 10.9844H5.01562V7.98438H7.5V5.5H10.5V7.98438H12.9844V10.9844H10.5V13.5156H7.5V10.9844ZM9 0.015625L0.984375 3.01562V9.10938C0.984375 10.3594 1.1875 11.5781 1.59375 12.7656C2 13.9531 2.5625 15.0469 3.28125 16.0469C4 17.0156 4.84375 17.8438 5.8125 18.5312C6.78125 19.2188 7.84375 19.7031 9 19.9844C10.1562 19.7031 11.2188 19.2188 12.1875 18.5312C13.1562 17.8438 14 17.0156 14.7188 16.0469C15.4375 15.0469 16 13.9531 16.4062 12.7656C16.8125 11.5781 17.0156 10.3594 17.0156 9.10938V3.01562L9 0.015625Z" fill="#339CFF"/>
</svg>
