<svg width="24" height="25" viewBox="0 0 24 25" fill="none" xmlns="http://www.w3.org/2000/svg">
<path d="M23.7673 9.82944H22.8007V9.77964H12.0007V14.5796H18.7825C17.7931 17.3738 15.1345 19.3796 12.0007 19.3796C8.02456 19.3796 4.80077 16.1558 4.80077 12.1796C4.80077 8.20345 8.02456 4.97966 12.0007 4.97966C13.8361 4.97966 15.5059 5.67206 16.7773 6.80305L20.1715 3.40887C18.0283 1.41148 15.1615 0.179688 12.0007 0.179688C5.37377 0.179688 0.000793457 5.55266 0.000793457 12.1796C0.000793457 18.8066 5.37377 24.1796 12.0007 24.1796C18.6277 24.1796 24.0007 18.8066 24.0007 12.1796C24.0007 11.375 23.9179 10.5896 23.7673 9.82944Z" fill="#FFC107"/>
<path d="M1.38446 6.59426L5.32704 9.48564C6.39384 6.84445 8.97742 4.97966 12.0008 4.97966C13.8362 4.97966 15.506 5.67206 16.7774 6.80305L20.1716 3.40887C18.0284 1.41148 15.1616 0.179688 12.0008 0.179688C7.39163 0.179688 3.39445 2.78187 1.38446 6.59426Z" fill="#FF3D00"/>
<path d="M12.0006 24.1796C15.1002 24.1796 17.9166 22.9934 20.046 21.0644L16.332 17.9216C15.0867 18.8687 13.5651 19.3809 12.0006 19.3796C8.87945 19.3796 6.22926 17.3894 5.23087 14.6121L1.31769 17.627C3.30368 21.5132 7.33686 24.1796 12.0006 24.1796Z" fill="#4CAF50"/>
<path d="M23.7672 9.82885H22.8006V9.77905H12.0006V14.579H18.7824C18.3091 15.9089 17.4566 17.0709 16.3302 17.9216L16.332 17.9204L20.046 21.0632C19.7832 21.302 24.0006 18.179 24.0006 12.179C24.0006 11.3744 23.9178 10.589 23.7672 9.82885Z" fill="#1976D2"/>
</svg>
