<svg width="21" height="24" viewBox="0 0 21 24" fill="none" xmlns="http://www.w3.org/2000/svg">
<path d="M2.01562 5.01562H3.98438V8.01562H14.0156V5.01562H15.9844V9.98438H18V5.01562C18 4.45312 17.7969 3.98438 17.3906 3.60938C17.0156 3.20312 16.5469 3 15.9844 3H11.8125C11.5938 2.40625 11.2344 1.92188 10.7344 1.54688C10.2344 1.17188 9.65625 0.984375 9 0.984375C8.34375 0.984375 7.76562 1.17188 7.26562 1.54688C6.76562 1.92188 6.40625 2.40625 6.1875 3H2.01562C1.45312 3 0.96875 3.20312 0.5625 3.60938C0.1875 3.98438 0 4.45312 0 5.01562V18.9844C0 19.5469 0.1875 20.0312 0.5625 20.4375C0.96875 20.8125 1.45312 21 2.01562 21H6.98438V18.9844H2.01562V5.01562ZM9 3C9.28125 3 9.51562 3.10937 9.70312 3.32812C9.89062 3.51562 9.98438 3.73438 9.98438 3.98438C9.98438 4.26562 9.89062 4.51562 9.70312 4.73438C9.51562 4.92188 9.28125 5.01562 9 5.01562C8.71875 5.01562 8.48438 4.92188 8.29688 4.73438C8.10938 4.51562 8.01562 4.26562 8.01562 3.98438C8.01562 3.73438 8.10938 3.51562 8.29688 3.32812C8.48438 3.10937 8.71875 3 9 3ZM17.2969 18.8906C17.4844 18.5469 17.6406 18.1719 17.7656 17.7656C17.9219 17.3594 18 16.9375 18 16.5C18 15.6562 17.7969 14.9062 17.3906 14.25C16.9844 13.5625 16.4375 13.0156 15.75 12.6094C15.0938 12.2031 14.3438 12 13.5 12C12.6562 12 11.8906 12.2031 11.2031 12.6094C10.5469 13.0156 10.0156 13.5625 9.60938 14.25C9.20312 14.9062 9 15.6562 9 16.5C9 17.3438 9.20312 18.1094 9.60938 18.7969C10.0156 19.4531 10.5469 19.9844 11.2031 20.3906C11.8906 20.7969 12.6562 21 13.5 21C13.9375 21 14.3594 20.9375 14.7656 20.8125C15.1719 20.6562 15.5469 20.4844 15.8906 20.2969L18.6094 23.0156L20.0156 21.6094L17.2969 18.8906ZM13.5 18.9844C12.8125 18.9844 12.2188 18.75 11.7188 18.2812C11.25 17.7812 11.0156 17.1875 11.0156 16.5C11.0156 15.8125 11.25 15.2344 11.7188 14.7656C12.2188 14.2656 12.8125 14.0156 13.5 14.0156C14.1875 14.0156 14.7656 14.2656 15.2344 14.7656C15.7344 15.2344 15.9844 15.8125 15.9844 16.5C15.9844 17.1875 15.7344 17.7812 15.2344 18.2812C14.7656 18.75 14.1875 18.9844 13.5 18.9844Z" fill="#339CFF"/>
</svg>
