<svg width="24" height="25" viewBox="0 0 24 25" fill="none" xmlns="http://www.w3.org/2000/svg">
<path d="M11.9977 8.17798C9.79418 8.17798 7.99597 9.9762 7.99597 12.1797C7.99597 14.3832 9.79418 16.1814 11.9977 16.1814C14.2012 16.1814 15.9994 14.3832 15.9994 12.1797C15.9994 9.9762 14.2012 8.17798 11.9977 8.17798ZM23.9998 12.1797C23.9998 10.5226 24.0148 8.88046 23.9217 7.22634C23.8287 5.30504 23.3904 3.59989 21.9854 2.19494C20.5775 0.78699 18.8753 0.351696 16.954 0.258633C15.2969 0.16557 13.6548 0.18058 12.0007 0.18058C10.3435 0.18058 8.70144 0.16557 7.04732 0.258633C5.12603 0.351696 3.42087 0.789992 2.01593 2.19494C0.607974 3.60289 0.17268 5.30504 0.079617 7.22634C-0.0134459 8.88346 0.00156432 10.5256 0.00156432 12.1797C0.00156432 13.8338 -0.0134459 15.4789 0.079617 17.133C0.17268 19.0543 0.610976 20.7595 2.01593 22.1644C3.42388 23.5724 5.12603 24.0077 7.04732 24.1007C8.70444 24.1938 10.3466 24.1788 12.0007 24.1788C13.6578 24.1788 15.2999 24.1938 16.954 24.1007C18.8753 24.0077 20.5805 23.5694 21.9854 22.1644C23.3934 20.7565 23.8287 19.0543 23.9217 17.133C24.0178 15.4789 23.9998 13.8368 23.9998 12.1797ZM11.9977 18.3368C8.59037 18.3368 5.84051 15.587 5.84051 12.1797C5.84051 8.77239 8.59037 6.02253 11.9977 6.02253C15.405 6.02253 18.1548 8.77239 18.1548 12.1797C18.1548 15.587 15.405 18.3368 11.9977 18.3368ZM18.407 7.20833C17.6115 7.20833 16.969 6.56589 16.969 5.77036C16.969 4.97482 17.6115 4.33239 18.407 4.33239C19.2025 4.33239 19.845 4.97482 19.845 5.77036C19.8452 5.95926 19.8082 6.14636 19.736 6.32093C19.6638 6.49549 19.5579 6.65411 19.4243 6.78769C19.2908 6.92126 19.1321 7.02717 18.9576 7.09935C18.783 7.17153 18.5959 7.20857 18.407 7.20833Z" fill="url(#paint0_linear_16103_644)"/>
<defs>
<linearGradient id="paint0_linear_16103_644" x1="3.21499" y1="1.20038" x2="20.7811" y2="23.1581" gradientUnits="userSpaceOnUse">
<stop stop-color="#CE00D2"/>
<stop offset="0.557292" stop-color="#E6758D"/>
<stop offset="1" stop-color="#FFC364"/>
</linearGradient>
</defs>
</svg>
